<?xml version="1.0" ?><svg viewBox="0 0 80 80" xmlns="http://www.w3.org/2000/svg"><title/><g data-name="레이어 2" id="레이어_2"><g data-name="레이어 1" id="레이어_1-2"><path d="M40,22.22a17.6,17.6,0,0,0-17.6,17.6,17.4,17.4,0,0,0,1.91,8l.78,1.53-1.46,7.11,7-1.65,1.58.79a17.61,17.61,0,0,0,20.28-3.32A17.6,17.6,0,0,0,40,22.22ZM51.83,47.12c-.85,1.34-2.2,3-3.89,3.39-3,.72-7.56,0-13.27-5.32-4.95-4.62-6.26-8.46-5.95-11.51.18-1.73,1.62-3.29,2.83-4.32a1.62,1.62,0,0,1,2.54.58l1.83,4.14a1.62,1.62,0,0,1-.2,1.65l-.93,1.2a1.59,1.59,0,0,0-.13,1.76c1.11,1.93,5.44,5.78,7.5,6.61a1.59,1.59,0,0,0,1.72-.36l1.06-1.08a1.62,1.62,0,0,1,1.61-.42l4.35,1.25A1.62,1.62,0,0,1,51.83,47.12Z"/><path d="M0,0V80H80V0ZM62.47,40.54A22.48,22.48,0,0,1,30,59.95L18.64,62.64a.87.87,0,0,1-1.06-1L20,50a22.48,22.48,0,1,1,42.5-9.49Z"/></g></g></svg>