<?xml version="1.0" ?><svg viewBox="0 0 60 53.17" xmlns="http://www.w3.org/2000/svg"><title/><g data-name="레이어 2" id="레이어_2"><g data-name="레이어 1" id="레이어_1-2"><path d="M60,24a7.53,7.53,0,0,0-12.87-5.32A31.37,31.37,0,0,0,31.63,14a8.25,8.25,0,0,1,10-8L42,6c0,.08,0,.17,0,.25a6.3,6.3,0,1,0,1-3.37l-.6-.13A11.5,11.5,0,0,0,28.37,14a31.37,31.37,0,0,0-15.51,4.72A7.53,7.53,0,1,0,4,30.71a14.87,14.87,0,0,0-.28,2.86c0,10.83,11.75,19.6,26.24,19.6s26.24-8.78,26.24-19.6A14.88,14.88,0,0,0,56,30.71,7.53,7.53,0,0,0,60,24ZM48.28,3.25a3,3,0,1,1-3,3A3,3,0,0,1,48.28,3.25ZM3.25,24a4.28,4.28,0,0,1,7-3.34A19.08,19.08,0,0,0,5,27.51,4.27,4.27,0,0,1,3.25,24ZM46.61,44.82A27.82,27.82,0,0,1,30,49.92a27.82,27.82,0,0,1-16.61-5.09C9.28,41.75,7,37.75,7,33.57s2.27-8.18,6.38-11.26A27.82,27.82,0,0,1,30,17.21a27.82,27.82,0,0,1,16.61,5.09C50.72,25.38,53,29.38,53,33.57S50.72,41.75,46.61,44.82ZM55,27.51a19.08,19.08,0,0,0-5.17-6.81A4.28,4.28,0,1,1,55,27.51Z"/><circle cx="20.42" cy="28.99" r="3.43"/><circle cx="39.58" cy="28.99" r="3.43"/><path d="M38.13,37.33a13.11,13.11,0,0,1-18.42-.76,1.63,1.63,0,1,0-2.38,2.22,16.36,16.36,0,0,0,23,.94,1.63,1.63,0,1,0-2.19-2.4Z"/></g></g></svg>