<?xml version="1.0" ?><svg viewBox="0 0 50 50" xmlns="http://www.w3.org/2000/svg"><title/><g data-name="레이어 2" id="레이어_2"><g data-name="레이어 1" id="레이어_1-2"><path d="M35.1,0H14.9A14.91,14.91,0,0,0,0,14.9V35.1A14.91,14.91,0,0,0,14.9,50H35.1A14.91,14.91,0,0,0,50,35.1V14.9A14.91,14.91,0,0,0,35.1,0ZM45,35.1A9.87,9.87,0,0,1,35.1,45H14.9A9.87,9.87,0,0,1,5,35.1V14.9A9.87,9.87,0,0,1,14.9,5H35.1A9.87,9.87,0,0,1,45,14.9V35.1Z"/><path d="M25,12.07A12.93,12.93,0,1,0,37.93,25,12.95,12.95,0,0,0,25,12.07ZM25,32.9A7.9,7.9,0,1,1,32.9,25,7.9,7.9,0,0,1,25,32.9Z"/><circle cx="37.96" cy="12.17" r="3.1"/></g></g></svg>