<?xml version="1.0" ?><svg viewBox="0 0 80 80" xmlns="http://www.w3.org/2000/svg"><title/><g data-name="레이어 2" id="레이어_2"><g data-name="레이어 1" id="레이어_1-2"><path d="M40,0A40,40,0,1,0,80,40,40,40,0,0,0,40,0ZM58.68,53.65a5,5,0,0,1-5,5h-8l0-13.35h4.61a.82.82,0,0,0,.81-.72l.51-4.3a.82.82,0,0,0-.81-.91H45.64v-3.6c0-1.63.45-2.75,2.79-2.75H50.6a.82.82,0,0,0,.82-.82V28.6a.82.82,0,0,0-.82-.82H47.07c-4.31,0-7.25,2.63-7.25,7.45v4.16H36.35a.82.82,0,0,0-.82.82l0,4.3a.82.82,0,0,0,.82.82h3.47l0,13.35H26.35a5,5,0,0,1-5-5V26.35a5,5,0,0,1,5-5H53.65a5,5,0,0,1,5,5Z"/></g></g></svg>