<?xml version="1.0" ?><svg viewBox="0 0 54 54.44" xmlns="http://www.w3.org/2000/svg"><title/><g data-name="레이어 2" id="레이어_2"><g data-name="레이어 1" id="레이어_1-2"><path d="M25.68,0A27,27,0,0,0,2.94,39.26L.07,53.18a1.05,1.05,0,0,0,1.27,1.23L15,51.18A27,27,0,1,0,25.68,0ZM41.95,41.95a21.15,21.15,0,0,1-24.36,4L15.69,45,7.33,47l1.76-8.54L8.16,36.6a21.16,21.16,0,0,1,3.89-24.55,21.14,21.14,0,1,1,29.9,29.9Z"/><path d="M40.1,32.86l-5.23-1.5a2,2,0,0,0-1.93.51l-1.28,1.3a1.91,1.91,0,0,1-2.07.44c-2.47-1-7.68-5.63-9-7.94a1.91,1.91,0,0,1,.15-2.11l1.12-1.44a2,2,0,0,0,.24-2l-2.2-5a2,2,0,0,0-3-.7c-1.46,1.23-3.19,3.11-3.4,5.19-.37,3.66,1.2,8.28,7.14,13.83,6.87,6.41,12.36,7.25,15.94,6.39,2-.49,3.65-2.46,4.68-4.08A2,2,0,0,0,40.1,32.86Z"/></g></g></svg>