<?xml version="1.0" ?><svg viewBox="0 0 80 80" xmlns="http://www.w3.org/2000/svg"><title/><g data-name="레이어 2" id="레이어_2"><g data-name="레이어 1" id="레이어_1-2"><path d="M23.66,33.07a3.53,3.53,0,1,0-4.26,5.62A15.75,15.75,0,0,1,23.66,33.07Z"/><path d="M53.71,34.4A23,23,0,0,0,40,30.19,23,23,0,0,0,26.29,34.4C22.9,36.93,21,40.23,21,43.69S22.9,50.44,26.29,53A23,23,0,0,0,40,57.18,23,23,0,0,0,53.71,53C57.1,50.44,59,47.14,59,43.69S57.1,36.93,53.71,34.4ZM32.09,37.08a2.83,2.83,0,1,1-2.83,2.83A2.83,2.83,0,0,1,32.09,37.08Zm16.43,11.7a13.51,13.51,0,0,1-19-.78,1.34,1.34,0,1,1,2-1.83,10.82,10.82,0,0,0,15.2.62,1.34,1.34,0,1,1,1.81,2Zm-.61-6a2.83,2.83,0,1,1,2.83-2.83A2.83,2.83,0,0,1,47.91,42.74Z"/><circle cx="55.08" cy="21.17" r="2.51"/><path d="M40,0A40,40,0,1,0,80,40,40,40,0,0,0,40,0ZM61.43,41.33a12.28,12.28,0,0,1,.23,2.36c0,8.94-9.7,16.18-21.66,16.18S18.34,52.62,18.34,43.69a12.27,12.27,0,0,1,.23-2.36,6.22,6.22,0,1,1,7.29-9.9,25.89,25.89,0,0,1,12.8-3.89,9.49,9.49,0,0,1,11.55-9.26l.5.11a5.19,5.19,0,1,1-.81,2.78c0-.07,0-.14,0-.21l-.28-.06a6.81,6.81,0,0,0-8.28,6.64,25.89,25.89,0,0,1,12.8,3.9,6.22,6.22,0,1,1,7.28,9.9Z"/><path d="M58.54,32.29a3.51,3.51,0,0,0-2.21.78,15.75,15.75,0,0,1,4.26,5.62,3.53,3.53,0,0,0-2.06-6.4Z"/></g></g></svg>